<svg id="visual" viewBox="0 0 960 540" width="960" height="540" xmlns="http://www.w3.org/2000/svg" xmlns:xlink="http://www.w3.org/1999/xlink" version="1.1"><g stroke-width="1" stroke-linejoin="bevel"><path d="M526 285L541 274L531 262Z" fill="#414548" stroke="#414548"></path><path d="M541 274L545 247L531 262Z" fill="#162028" stroke="#162028"></path><path d="M545 247L540 242L531 262Z" fill="#101b24" stroke="#101b24"></path><path d="M526 285L543 311L541 274Z" fill="#091620" stroke="#091620"></path><path d="M541 274L562 246L545 247Z" fill="#091620" stroke="#091620"></path><path d="M579 249L562 246L541 274Z" fill="#282f35" stroke="#282f35"></path><path d="M545 247L562 246L540 242Z" fill="#222a31" stroke="#222a31"></path><path d="M540 242L509 228L531 262Z" fill="#3b3f43" stroke="#3b3f43"></path><path d="M531 262L509 228L526 285Z" fill="#222a31" stroke="#222a31"></path><path d="M547 179L509 228L540 242Z" fill="#2e353a" stroke="#2e353a"></path><path d="M543 311L580 295L541 274Z" fill="#1c252d" stroke="#1c252d"></path><path d="M543 311L573 316L580 295Z" fill="#2e353a" stroke="#2e353a"></path><path d="M580 295L579 249L541 274Z" fill="#414548" stroke="#414548"></path><path d="M562 246L578 209L540 242Z" fill="#162028" stroke="#162028"></path><path d="M556 322L573 316L543 311Z" fill="#00101c" stroke="#00101c"></path><path d="M514 348L543 311L526 285Z" fill="#101b24" stroke="#101b24"></path><path d="M514 348L533 347L543 311Z" fill="#00101c" stroke="#00101c"></path><path d="M543 311L533 347L556 322Z" fill="#3b3f43" stroke="#3b3f43"></path><path d="M556 322L556 394L573 316Z" fill="#162028" stroke="#162028"></path><path d="M419 315L514 348L526 285Z" fill="#3b3f43" stroke="#3b3f43"></path><path d="M579 249L578 209L562 246Z" fill="#222a31" stroke="#222a31"></path><path d="M578 209L547 179L540 242Z" fill="#1c252d" stroke="#1c252d"></path><path d="M579 249L586 198L578 209Z" fill="#162028" stroke="#162028"></path><path d="M578 209L586 198L575 197Z" fill="#3b3f43" stroke="#3b3f43"></path><path d="M698 261L586 198L579 249Z" fill="#1c252d" stroke="#1c252d"></path><path d="M617 160L547 179L575 197Z" fill="#162028" stroke="#162028"></path><path d="M575 197L547 179L578 209Z" fill="#101b24" stroke="#101b24"></path><path d="M457 173L429 245L509 228Z" fill="#101b24" stroke="#101b24"></path><path d="M509 228L429 245L526 285Z" fill="#3b3f43" stroke="#3b3f43"></path><path d="M573 316L640 298L580 295Z" fill="#414548" stroke="#414548"></path><path d="M580 295L640 298L579 249Z" fill="#414548" stroke="#414548"></path><path d="M624 365L640 298L573 316Z" fill="#1c252d" stroke="#1c252d"></path><path d="M429 245L419 315L526 285Z" fill="#00101c" stroke="#00101c"></path><path d="M514 348L532 394L533 347Z" fill="#222a31" stroke="#222a31"></path><path d="M533 347L556 394L556 322Z" fill="#1c252d" stroke="#1c252d"></path><path d="M502 408L532 394L514 348Z" fill="#162028" stroke="#162028"></path><path d="M532 394L556 394L533 347Z" fill="#282f35" stroke="#282f35"></path><path d="M505 149L457 173L509 228Z" fill="#282f35" stroke="#282f35"></path><path d="M508 140L505 149L547 179Z" fill="#343a3f" stroke="#343a3f"></path><path d="M547 179L505 149L509 228Z" fill="#091620" stroke="#091620"></path><path d="M556 394L624 365L573 316Z" fill="#282f35" stroke="#282f35"></path><path d="M530 117L508 140L547 179Z" fill="#1c252d" stroke="#1c252d"></path><path d="M505 149L501 109L457 173Z" fill="#2e353a" stroke="#2e353a"></path><path d="M419 315L502 408L514 348Z" fill="#222a31" stroke="#222a31"></path><path d="M532 394L568 410L556 394Z" fill="#414548" stroke="#414548"></path><path d="M457 173L396 230L429 245Z" fill="#3b3f43" stroke="#3b3f43"></path><path d="M429 245L396 230L419 315Z" fill="#282f35" stroke="#282f35"></path><path d="M524 447L568 410L532 394Z" fill="#101b24" stroke="#101b24"></path><path d="M556 394L568 410L624 365Z" fill="#2e353a" stroke="#2e353a"></path><path d="M648 159L617 160L586 198Z" fill="#282f35" stroke="#282f35"></path><path d="M586 198L617 160L575 197Z" fill="#101b24" stroke="#101b24"></path><path d="M680 357L657 356L656 440Z" fill="#222a31" stroke="#222a31"></path><path d="M624 365L657 356L640 298Z" fill="#1c252d" stroke="#1c252d"></path><path d="M698 261L648 159L586 198Z" fill="#414548" stroke="#414548"></path><path d="M557 117L530 117L547 179Z" fill="#091620" stroke="#091620"></path><path d="M501 109L424 157L457 173Z" fill="#3b3f43" stroke="#3b3f43"></path><path d="M501 109L505 149L508 140Z" fill="#222a31" stroke="#222a31"></path><path d="M457 173L424 157L396 230Z" fill="#343a3f" stroke="#343a3f"></path><path d="M657 356L684 302L640 298Z" fill="#3b3f43" stroke="#3b3f43"></path><path d="M415 156L378 229L396 230Z" fill="#091620" stroke="#091620"></path><path d="M396 230L378 229L419 315Z" fill="#343a3f" stroke="#343a3f"></path><path d="M617 160L557 117L547 179Z" fill="#282f35" stroke="#282f35"></path><path d="M376 361L487 429L502 408Z" fill="#2e353a" stroke="#2e353a"></path><path d="M502 408L524 447L532 394Z" fill="#343a3f" stroke="#343a3f"></path><path d="M409 87L415 156L424 157Z" fill="#222a31" stroke="#222a31"></path><path d="M424 157L415 156L396 230Z" fill="#343a3f" stroke="#343a3f"></path><path d="M698 261L579 249L640 298Z" fill="#282f35" stroke="#282f35"></path><path d="M617 160L678 54L557 117Z" fill="#343a3f" stroke="#343a3f"></path><path d="M522 99L501 109L530 117Z" fill="#2e353a" stroke="#2e353a"></path><path d="M530 117L501 109L508 140Z" fill="#101b24" stroke="#101b24"></path><path d="M684 302L698 261L640 298Z" fill="#101b24" stroke="#101b24"></path><path d="M656 440L657 356L624 365Z" fill="#414548" stroke="#414548"></path><path d="M657 356L680 357L684 302Z" fill="#3b3f43" stroke="#3b3f43"></path><path d="M773 257L714 245L698 261Z" fill="#101b24" stroke="#101b24"></path><path d="M487 429L524 447L502 408Z" fill="#00101c" stroke="#00101c"></path><path d="M656 440L697 359L680 357Z" fill="#282f35" stroke="#282f35"></path><path d="M539 87L530 117L557 117Z" fill="#222a31" stroke="#222a31"></path><path d="M539 87L522 99L530 117Z" fill="#162028" stroke="#162028"></path><path d="M363 347L376 361L419 315Z" fill="#414548" stroke="#414548"></path><path d="M419 315L376 361L502 408Z" fill="#091620" stroke="#091620"></path><path d="M524 447L542 453L568 410Z" fill="#101b24" stroke="#101b24"></path><path d="M347 328L363 347L419 315Z" fill="#3b3f43" stroke="#3b3f43"></path><path d="M618 23L539 87L557 117Z" fill="#091620" stroke="#091620"></path><path d="M522 99L516 53L501 109Z" fill="#282f35" stroke="#282f35"></path><path d="M501 109L409 87L424 157Z" fill="#1c252d" stroke="#1c252d"></path><path d="M773 257L698 261L684 302Z" fill="#222a31" stroke="#222a31"></path><path d="M698 261L713 189L648 159Z" fill="#101b24" stroke="#101b24"></path><path d="M656 440L624 365L568 410Z" fill="#00101c" stroke="#00101c"></path><path d="M680 357L711 351L684 302Z" fill="#343a3f" stroke="#343a3f"></path><path d="M378 229L347 328L419 315Z" fill="#00101c" stroke="#00101c"></path><path d="M319 183L342 231L378 229Z" fill="#282f35" stroke="#282f35"></path><path d="M378 229L320 275L347 328Z" fill="#091620" stroke="#091620"></path><path d="M344 355L363 375L363 347Z" fill="#1c252d" stroke="#1c252d"></path><path d="M363 347L363 375L376 361Z" fill="#091620" stroke="#091620"></path><path d="M376 361L363 375L487 429Z" fill="#282f35" stroke="#282f35"></path><path d="M563 477L542 453L529 540Z" fill="#2e353a" stroke="#2e353a"></path><path d="M766 361L711 351L740 431Z" fill="#091620" stroke="#091620"></path><path d="M697 359L711 351L680 357Z" fill="#1c252d" stroke="#1c252d"></path><path d="M563 477L566 469L542 453Z" fill="#091620" stroke="#091620"></path><path d="M542 453L566 469L568 410Z" fill="#282f35" stroke="#282f35"></path><path d="M476 469L524 447L487 429Z" fill="#2e353a" stroke="#2e353a"></path><path d="M347 328L344 355L363 347Z" fill="#2e353a" stroke="#2e353a"></path><path d="M337 367L344 355L334 369Z" fill="#2e353a" stroke="#2e353a"></path><path d="M714 245L713 189L698 261Z" fill="#091620" stroke="#091620"></path><path d="M618 23L529 67L539 87Z" fill="#162028" stroke="#162028"></path><path d="M363 375L476 469L487 429Z" fill="#3b3f43" stroke="#3b3f43"></path><path d="M529 540L542 453L524 447Z" fill="#101b24" stroke="#101b24"></path><path d="M641 472L656 440L568 410Z" fill="#091620" stroke="#091620"></path><path d="M678 54L617 160L648 159Z" fill="#414548" stroke="#414548"></path><path d="M539 87L529 67L522 99Z" fill="#282f35" stroke="#282f35"></path><path d="M641 472L568 410L566 469Z" fill="#2e353a" stroke="#2e353a"></path><path d="M342 231L320 275L378 229Z" fill="#222a31" stroke="#222a31"></path><path d="M713 189L691 140L648 159Z" fill="#2e353a" stroke="#2e353a"></path><path d="M344 355L337 367L363 375Z" fill="#414548" stroke="#414548"></path><path d="M363 375L345 394L476 469Z" fill="#343a3f" stroke="#343a3f"></path><path d="M334 369L344 355L307 323Z" fill="#343a3f" stroke="#343a3f"></path><path d="M307 323L344 355L347 328Z" fill="#2e353a" stroke="#2e353a"></path><path d="M337 367L345 394L363 375Z" fill="#091620" stroke="#091620"></path><path d="M334 369L345 394L337 367Z" fill="#091620" stroke="#091620"></path><path d="M517 0L516 53L581 0Z" fill="#1c252d" stroke="#1c252d"></path><path d="M529 67L516 53L522 99Z" fill="#3b3f43" stroke="#3b3f43"></path><path d="M516 53L409 87L501 109Z" fill="#00101c" stroke="#00101c"></path><path d="M339 145L319 183L378 229Z" fill="#2e353a" stroke="#2e353a"></path><path d="M342 231L314 194L320 275Z" fill="#282f35" stroke="#282f35"></path><path d="M641 472L670 450L656 440Z" fill="#162028" stroke="#162028"></path><path d="M656 440L670 450L697 359Z" fill="#3b3f43" stroke="#3b3f43"></path><path d="M320 275L307 323L347 328Z" fill="#1c252d" stroke="#1c252d"></path><path d="M334 369L288 392L345 394Z" fill="#091620" stroke="#091620"></path><path d="M563 477L641 472L566 469Z" fill="#2e353a" stroke="#2e353a"></path><path d="M339 145L378 229L415 156Z" fill="#3b3f43" stroke="#3b3f43"></path><path d="M281 324L290 355L307 323Z" fill="#343a3f" stroke="#343a3f"></path><path d="M319 183L314 194L342 231Z" fill="#2e353a" stroke="#2e353a"></path><path d="M349 106L339 145L415 156Z" fill="#282f35" stroke="#282f35"></path><path d="M714 245L743 187L713 189Z" fill="#00101c" stroke="#00101c"></path><path d="M713 189L750 153L691 140Z" fill="#2e353a" stroke="#2e353a"></path><path d="M754 186L743 187L773 257Z" fill="#3b3f43" stroke="#3b3f43"></path><path d="M390 516L470 497L476 469Z" fill="#282f35" stroke="#282f35"></path><path d="M476 469L470 497L524 447Z" fill="#2e353a" stroke="#2e353a"></path><path d="M642 503L666 482L641 472Z" fill="#343a3f" stroke="#343a3f"></path><path d="M773 257L743 187L714 245Z" fill="#091620" stroke="#091620"></path><path d="M743 187L750 153L713 189Z" fill="#1c252d" stroke="#1c252d"></path><path d="M792 336L773 257L711 351Z" fill="#222a31" stroke="#222a31"></path><path d="M711 351L773 257L684 302Z" fill="#343a3f" stroke="#343a3f"></path><path d="M355 89L349 106L409 87Z" fill="#414548" stroke="#414548"></path><path d="M409 87L349 106L415 156Z" fill="#282f35" stroke="#282f35"></path><path d="M339 145L305 138L319 183Z" fill="#162028" stroke="#162028"></path><path d="M319 183L288 152L314 194Z" fill="#3b3f43" stroke="#3b3f43"></path><path d="M642 503L641 472L563 477Z" fill="#091620" stroke="#091620"></path><path d="M641 472L666 482L670 450Z" fill="#343a3f" stroke="#343a3f"></path><path d="M740 431L711 351L697 359Z" fill="#162028" stroke="#162028"></path><path d="M754 186L750 153L743 187Z" fill="#343a3f" stroke="#343a3f"></path><path d="M691 140L678 54L648 159Z" fill="#162028" stroke="#162028"></path><path d="M788 187L750 153L754 186Z" fill="#2e353a" stroke="#2e353a"></path><path d="M740 431L697 359L670 450Z" fill="#222a31" stroke="#222a31"></path><path d="M307 323L290 355L334 369Z" fill="#2e353a" stroke="#2e353a"></path><path d="M410 540L456 540L470 497Z" fill="#222a31" stroke="#222a31"></path><path d="M281 324L307 323L320 275Z" fill="#101b24" stroke="#101b24"></path><path d="M242 308L281 324L320 275Z" fill="#162028" stroke="#162028"></path><path d="M371 59L355 89L409 87Z" fill="#282f35" stroke="#282f35"></path><path d="M349 106L305 138L339 145Z" fill="#2e353a" stroke="#2e353a"></path><path d="M624 540L642 503L563 477Z" fill="#343a3f" stroke="#343a3f"></path><path d="M715 480L710 461L666 482Z" fill="#091620" stroke="#091620"></path><path d="M666 482L710 461L670 450Z" fill="#091620" stroke="#091620"></path><path d="M287 88L305 138L349 106Z" fill="#101b24" stroke="#101b24"></path><path d="M237 239L242 308L320 275Z" fill="#282f35" stroke="#282f35"></path><path d="M710 461L740 431L670 450Z" fill="#101b24" stroke="#101b24"></path><path d="M781 77L678 54L691 140Z" fill="#343a3f" stroke="#343a3f"></path><path d="M678 54L618 23L557 117Z" fill="#2e353a" stroke="#2e353a"></path><path d="M416 0L371 59L409 87Z" fill="#1c252d" stroke="#1c252d"></path><path d="M470 497L529 540L524 447Z" fill="#414548" stroke="#414548"></path><path d="M529 540L531 540L563 477Z" fill="#414548" stroke="#414548"></path><path d="M447 0L409 87L516 53Z" fill="#414548" stroke="#414548"></path><path d="M287 88L289 140L305 138Z" fill="#343a3f" stroke="#343a3f"></path><path d="M271 390L288 392L290 355Z" fill="#282f35" stroke="#282f35"></path><path d="M290 355L288 392L334 369Z" fill="#2e353a" stroke="#2e353a"></path><path d="M470 497L456 540L529 540Z" fill="#101b24" stroke="#101b24"></path><path d="M772 413L781 371L766 361Z" fill="#414548" stroke="#414548"></path><path d="M766 361L792 336L711 351Z" fill="#343a3f" stroke="#343a3f"></path><path d="M781 371L792 336L766 361Z" fill="#1c252d" stroke="#1c252d"></path><path d="M773 257L788 187L754 186Z" fill="#091620" stroke="#091620"></path><path d="M289 140L288 152L305 138Z" fill="#282f35" stroke="#282f35"></path><path d="M305 138L288 152L319 183Z" fill="#162028" stroke="#162028"></path><path d="M842 280L788 187L773 257Z" fill="#1c252d" stroke="#1c252d"></path><path d="M725 0L677 0L678 54Z" fill="#3b3f43" stroke="#3b3f43"></path><path d="M581 0L516 53L529 67Z" fill="#1c252d" stroke="#1c252d"></path><path d="M329 75L349 106L355 89Z" fill="#3b3f43" stroke="#3b3f43"></path><path d="M390 516L476 469L345 394Z" fill="#222a31" stroke="#222a31"></path><path d="M710 461L715 480L740 431Z" fill="#00101c" stroke="#00101c"></path><path d="M740 431L772 413L766 361Z" fill="#3b3f43" stroke="#3b3f43"></path><path d="M675 533L715 480L666 482Z" fill="#2e353a" stroke="#2e353a"></path><path d="M675 533L666 482L642 503Z" fill="#162028" stroke="#162028"></path><path d="M618 23L581 0L529 67Z" fill="#00101c" stroke="#00101c"></path><path d="M619 0L581 0L618 23Z" fill="#1c252d" stroke="#1c252d"></path><path d="M289 467L390 516L345 394Z" fill="#343a3f" stroke="#343a3f"></path><path d="M798 458L772 413L740 431Z" fill="#222a31" stroke="#222a31"></path><path d="M831 325L827 287L792 336Z" fill="#414548" stroke="#414548"></path><path d="M361 0L329 75L371 59Z" fill="#091620" stroke="#091620"></path><path d="M371 59L329 75L355 89Z" fill="#343a3f" stroke="#343a3f"></path><path d="M271 390L287 419L288 392Z" fill="#162028" stroke="#162028"></path><path d="M288 392L287 419L345 394Z" fill="#343a3f" stroke="#343a3f"></path><path d="M531 540L624 540L563 477Z" fill="#282f35" stroke="#282f35"></path><path d="M242 308L271 390L290 355Z" fill="#101b24" stroke="#101b24"></path><path d="M242 308L290 355L281 324Z" fill="#1c252d" stroke="#1c252d"></path><path d="M517 0L447 0L516 53Z" fill="#414548" stroke="#414548"></path><path d="M639 0L619 0L618 23Z" fill="#414548" stroke="#414548"></path><path d="M251 193L314 194L288 152Z" fill="#222a31" stroke="#222a31"></path><path d="M237 239L320 275L314 194Z" fill="#1c252d" stroke="#1c252d"></path><path d="M624 540L643 540L642 503Z" fill="#282f35" stroke="#282f35"></path><path d="M239 178L288 152L289 140Z" fill="#3b3f43" stroke="#3b3f43"></path><path d="M239 178L251 193L288 152Z" fill="#091620" stroke="#091620"></path><path d="M376 556L410 540L390 516Z" fill="#091620" stroke="#091620"></path><path d="M390 516L410 540L470 497Z" fill="#282f35" stroke="#282f35"></path><path d="M251 193L237 239L314 194Z" fill="#091620" stroke="#091620"></path><path d="M677 0L639 0L678 54Z" fill="#101b24" stroke="#101b24"></path><path d="M678 54L639 0L618 23Z" fill="#414548" stroke="#414548"></path><path d="M447 0L416 0L409 87Z" fill="#091620" stroke="#091620"></path><path d="M662 540L675 533L642 503Z" fill="#343a3f" stroke="#343a3f"></path><path d="M715 480L798 458L740 431Z" fill="#282f35" stroke="#282f35"></path><path d="M643 540L662 540L642 503Z" fill="#00101c" stroke="#00101c"></path><path d="M831 325L792 336L781 371Z" fill="#343a3f" stroke="#343a3f"></path><path d="M792 336L827 287L773 257Z" fill="#414548" stroke="#414548"></path><path d="M264 426L285 455L287 419Z" fill="#101b24" stroke="#101b24"></path><path d="M287 419L285 455L345 394Z" fill="#101b24" stroke="#101b24"></path><path d="M264 426L287 419L271 390Z" fill="#282f35" stroke="#282f35"></path><path d="M245 0L287 88L329 75Z" fill="#282f35" stroke="#282f35"></path><path d="M329 75L287 88L349 106Z" fill="#162028" stroke="#162028"></path><path d="M180 118L239 178L289 140Z" fill="#101b24" stroke="#101b24"></path><path d="M251 193L221 210L237 239Z" fill="#2e353a" stroke="#2e353a"></path><path d="M251 432L264 426L271 390Z" fill="#222a31" stroke="#222a31"></path><path d="M849 406L831 325L781 371Z" fill="#101b24" stroke="#101b24"></path><path d="M662 540L681 540L675 533Z" fill="#1c252d" stroke="#1c252d"></path><path d="M675 533L681 540L715 480Z" fill="#343a3f" stroke="#343a3f"></path><path d="M240 474L289 467L285 455Z" fill="#343a3f" stroke="#343a3f"></path><path d="M285 455L289 467L345 394Z" fill="#162028" stroke="#162028"></path><path d="M831 325L837 304L827 287Z" fill="#1c252d" stroke="#1c252d"></path><path d="M827 287L842 280L773 257Z" fill="#2e353a" stroke="#2e353a"></path><path d="M447 0L468 -31L416 0Z" fill="#282f35" stroke="#282f35"></path><path d="M517 0L468 -31L447 0Z" fill="#282f35" stroke="#282f35"></path><path d="M581 0L468 -31L517 0Z" fill="#091620" stroke="#091620"></path><path d="M683 -34L468 -31L581 0Z" fill="#343a3f" stroke="#343a3f"></path><path d="M683 -34L581 0L619 0Z" fill="#1c252d" stroke="#1c252d"></path><path d="M781 77L691 140L750 153Z" fill="#1c252d" stroke="#1c252d"></path><path d="M639 0L683 -34L619 0Z" fill="#3b3f43" stroke="#3b3f43"></path><path d="M468 -31L381 0L416 0Z" fill="#282f35" stroke="#282f35"></path><path d="M416 0L381 0L371 59Z" fill="#414548" stroke="#414548"></path><path d="M837 304L842 280L827 287Z" fill="#091620" stroke="#091620"></path><path d="M191 214L221 210L193 203Z" fill="#282f35" stroke="#282f35"></path><path d="M239 178L221 210L251 193Z" fill="#101b24" stroke="#101b24"></path><path d="M186 282L215 314L242 308Z" fill="#091620" stroke="#091620"></path><path d="M242 308L215 314L271 390Z" fill="#101b24" stroke="#101b24"></path><path d="M186 282L242 308L237 239Z" fill="#282f35" stroke="#282f35"></path><path d="M803 108L750 153L788 187Z" fill="#3b3f43" stroke="#3b3f43"></path><path d="M803 108L786 88L750 153Z" fill="#343a3f" stroke="#343a3f"></path><path d="M842 280L831 176L788 187Z" fill="#414548" stroke="#414548"></path><path d="M221 210L214 232L237 239Z" fill="#00101c" stroke="#00101c"></path><path d="M845 52L781 77L786 88Z" fill="#00101c" stroke="#00101c"></path><path d="M786 88L781 77L750 153Z" fill="#343a3f" stroke="#343a3f"></path><path d="M468 -31L364 0L381 0Z" fill="#101b24" stroke="#101b24"></path><path d="M381 0L364 0L371 59Z" fill="#101b24" stroke="#101b24"></path><path d="M831 176L803 108L788 187Z" fill="#091620" stroke="#091620"></path><path d="M200 387L251 432L271 390Z" fill="#282f35" stroke="#282f35"></path><path d="M264 426L251 432L285 455Z" fill="#00101c" stroke="#00101c"></path><path d="M468 -31L361 0L364 0Z" fill="#3b3f43" stroke="#3b3f43"></path><path d="M364 0L361 0L371 59Z" fill="#00101c" stroke="#00101c"></path><path d="M315 540L376 556L390 516Z" fill="#162028" stroke="#162028"></path><path d="M410 540L376 556L456 540Z" fill="#282f35" stroke="#282f35"></path><path d="M456 540L376 556L529 540Z" fill="#2e353a" stroke="#2e353a"></path><path d="M529 540L676 560L531 540Z" fill="#343a3f" stroke="#343a3f"></path><path d="M531 540L676 560L624 540Z" fill="#3b3f43" stroke="#3b3f43"></path><path d="M624 540L676 560L643 540Z" fill="#1c252d" stroke="#1c252d"></path><path d="M643 540L676 560L662 540Z" fill="#3b3f43" stroke="#3b3f43"></path><path d="M662 540L676 560L681 540Z" fill="#3b3f43" stroke="#3b3f43"></path><path d="M315 540L390 516L289 467Z" fill="#282f35" stroke="#282f35"></path><path d="M376 556L676 560L529 540Z" fill="#343a3f" stroke="#343a3f"></path><path d="M810 515L798 458L715 480Z" fill="#101b24" stroke="#101b24"></path><path d="M772 413L849 406L781 371Z" fill="#162028" stroke="#162028"></path><path d="M810 515L715 480L798 540Z" fill="#414548" stroke="#414548"></path><path d="M868 305L842 280L837 304Z" fill="#101b24" stroke="#101b24"></path><path d="M852 169L845 165L831 176Z" fill="#1c252d" stroke="#1c252d"></path><path d="M831 176L843 139L803 108Z" fill="#101b24" stroke="#101b24"></path><path d="M803 108L845 52L786 88Z" fill="#1c252d" stroke="#1c252d"></path><path d="M764 22L725 0L678 54Z" fill="#282f35" stroke="#282f35"></path><path d="M677 0L683 -34L639 0Z" fill="#414548" stroke="#414548"></path><path d="M864 172L852 169L831 176Z" fill="#222a31" stroke="#222a31"></path><path d="M845 165L843 139L831 176Z" fill="#343a3f" stroke="#343a3f"></path><path d="M781 77L764 22L678 54Z" fill="#222a31" stroke="#222a31"></path><path d="M868 305L869 281L842 280Z" fill="#282f35" stroke="#282f35"></path><path d="M877 178L864 172L831 176Z" fill="#222a31" stroke="#222a31"></path><path d="M868 305L837 304L831 325Z" fill="#343a3f" stroke="#343a3f"></path><path d="M901 346L868 305L831 325Z" fill="#3b3f43" stroke="#3b3f43"></path><path d="M852 169L843 139L845 165Z" fill="#162028" stroke="#162028"></path><path d="M275 540L315 540L289 467Z" fill="#00101c" stroke="#00101c"></path><path d="M214 232L186 282L237 239Z" fill="#282f35" stroke="#282f35"></path><path d="M215 314L200 387L271 390Z" fill="#101b24" stroke="#101b24"></path><path d="M191 214L186 282L214 232Z" fill="#101b24" stroke="#101b24"></path><path d="M193 203L221 210L239 178Z" fill="#101b24" stroke="#101b24"></path><path d="M221 210L191 214L214 232Z" fill="#414548" stroke="#414548"></path><path d="M156 199L193 203L144 160Z" fill="#414548" stroke="#414548"></path><path d="M725 0L683 -34L677 0Z" fill="#091620" stroke="#091620"></path><path d="M845 52L764 22L781 77Z" fill="#091620" stroke="#091620"></path><path d="M725 0L745 0L683 -34Z" fill="#414548" stroke="#414548"></path><path d="M798 458L849 406L772 413Z" fill="#00101c" stroke="#00101c"></path><path d="M193 203L189 210L191 214Z" fill="#282f35" stroke="#282f35"></path><path d="M191 214L125 250L186 282Z" fill="#343a3f" stroke="#343a3f"></path><path d="M180 357L200 387L215 314Z" fill="#2e353a" stroke="#2e353a"></path><path d="M251 432L240 474L285 455Z" fill="#414548" stroke="#414548"></path><path d="M764 22L745 0L725 0Z" fill="#3b3f43" stroke="#3b3f43"></path><path d="M852 169L864 172L843 139Z" fill="#162028" stroke="#162028"></path><path d="M877 178L831 176L842 280Z" fill="#282f35" stroke="#282f35"></path><path d="M215 445L240 474L251 432Z" fill="#282f35" stroke="#282f35"></path><path d="M200 387L215 445L251 432Z" fill="#282f35" stroke="#282f35"></path><path d="M101 332L180 357L186 282Z" fill="#2e353a" stroke="#2e353a"></path><path d="M186 282L180 357L215 314Z" fill="#101b24" stroke="#101b24"></path><path d="M200 387L167 405L215 445Z" fill="#2e353a" stroke="#2e353a"></path><path d="M869 281L877 178L842 280Z" fill="#00101c" stroke="#00101c"></path><path d="M864 172L921 152L843 139Z" fill="#091620" stroke="#091620"></path><path d="M843 139L845 52L803 108Z" fill="#101b24" stroke="#101b24"></path><path d="M918 288L877 178L869 281Z" fill="#162028" stroke="#162028"></path><path d="M240 474L275 540L289 467Z" fill="#2e353a" stroke="#2e353a"></path><path d="M315 540L275 540L376 556Z" fill="#101b24" stroke="#101b24"></path><path d="M193 540L275 540L240 474Z" fill="#101b24" stroke="#101b24"></path><path d="M798 540L715 480L681 540Z" fill="#091620" stroke="#091620"></path><path d="M798 458L884 408L849 406Z" fill="#282f35" stroke="#282f35"></path><path d="M676 560L798 540L681 540Z" fill="#414548" stroke="#414548"></path><path d="M884 408L901 346L849 406Z" fill="#343a3f" stroke="#343a3f"></path><path d="M849 406L901 346L831 325Z" fill="#091620" stroke="#091620"></path><path d="M868 305L908 306L869 281Z" fill="#1c252d" stroke="#1c252d"></path><path d="M884 408L798 458L810 515Z" fill="#282f35" stroke="#282f35"></path><path d="M891 540L884 408L810 515Z" fill="#222a31" stroke="#222a31"></path><path d="M901 346L908 306L868 305Z" fill="#00101c" stroke="#00101c"></path><path d="M193 203L156 199L189 210Z" fill="#162028" stroke="#162028"></path><path d="M189 210L156 199L191 214Z" fill="#101b24" stroke="#101b24"></path><path d="M168 131L193 203L239 178Z" fill="#1c252d" stroke="#1c252d"></path><path d="M180 118L289 140L287 88Z" fill="#414548" stroke="#414548"></path><path d="M199 48L180 118L287 88Z" fill="#1c252d" stroke="#1c252d"></path><path d="M180 357L167 405L200 387Z" fill="#101b24" stroke="#101b24"></path><path d="M215 445L169 459L240 474Z" fill="#222a31" stroke="#222a31"></path><path d="M94 384L167 405L180 357Z" fill="#2e353a" stroke="#2e353a"></path><path d="M863 50L845 52L843 139Z" fill="#162028" stroke="#162028"></path><path d="M764 22L821 0L745 0Z" fill="#2e353a" stroke="#2e353a"></path><path d="M745 0L821 0L683 -34Z" fill="#162028" stroke="#162028"></path><path d="M180 118L168 131L239 178Z" fill="#162028" stroke="#162028"></path><path d="M925 305L918 288L908 306Z" fill="#3b3f43" stroke="#3b3f43"></path><path d="M908 306L918 288L869 281Z" fill="#343a3f" stroke="#343a3f"></path><path d="M921 152L863 50L843 139Z" fill="#3b3f43" stroke="#3b3f43"></path><path d="M922 324L908 306L901 346Z" fill="#222a31" stroke="#222a31"></path><path d="M255 -26L245 0L361 0Z" fill="#162028" stroke="#162028"></path><path d="M361 0L245 0L329 75Z" fill="#101b24" stroke="#101b24"></path><path d="M180 118L144 126L168 131Z" fill="#343a3f" stroke="#343a3f"></path><path d="M920 368L922 324L901 346Z" fill="#3b3f43" stroke="#3b3f43"></path><path d="M922 324L925 305L908 306Z" fill="#343a3f" stroke="#343a3f"></path><path d="M921 152L864 172L877 178Z" fill="#222a31" stroke="#222a31"></path><path d="M245 0L199 48L287 88Z" fill="#282f35" stroke="#282f35"></path><path d="M845 52L821 0L764 22Z" fill="#3b3f43" stroke="#3b3f43"></path><path d="M168 131L144 160L193 203Z" fill="#1c252d" stroke="#1c252d"></path><path d="M156 199L125 250L191 214Z" fill="#2e353a" stroke="#2e353a"></path><path d="M144 126L144 160L168 131Z" fill="#414548" stroke="#414548"></path><path d="M921 152L877 178L960 206Z" fill="#1c252d" stroke="#1c252d"></path><path d="M845 52L849 19L821 0Z" fill="#343a3f" stroke="#343a3f"></path><path d="M945 393L920 368L884 408Z" fill="#3b3f43" stroke="#3b3f43"></path><path d="M884 408L920 368L901 346Z" fill="#091620" stroke="#091620"></path><path d="M960 315L960 266L925 305Z" fill="#222a31" stroke="#222a31"></path><path d="M859 560L832 540L798 540Z" fill="#282f35" stroke="#282f35"></path><path d="M798 540L832 540L810 515Z" fill="#343a3f" stroke="#343a3f"></path><path d="M859 560L834 540L832 540Z" fill="#091620" stroke="#091620"></path><path d="M832 540L834 540L810 515Z" fill="#1c252d" stroke="#1c252d"></path><path d="M93 243L125 250L156 199Z" fill="#091620" stroke="#091620"></path><path d="M152 496L169 459L64 437Z" fill="#091620" stroke="#091620"></path><path d="M167 405L169 459L215 445Z" fill="#2e353a" stroke="#2e353a"></path><path d="M468 -31L255 -26L361 0Z" fill="#101b24" stroke="#101b24"></path><path d="M245 0L193 0L199 48Z" fill="#343a3f" stroke="#343a3f"></path><path d="M151 82L170 81L199 48Z" fill="#343a3f" stroke="#343a3f"></path><path d="M199 48L170 81L180 118Z" fill="#414548" stroke="#414548"></path><path d="M863 50L849 19L845 52Z" fill="#2e353a" stroke="#2e353a"></path><path d="M960 206L877 178L918 288Z" fill="#2e353a" stroke="#2e353a"></path><path d="M863 50L875 0L849 19Z" fill="#00101c" stroke="#00101c"></path><path d="M151 82L144 126L180 118Z" fill="#222a31" stroke="#222a31"></path><path d="M144 160L93 243L156 199Z" fill="#222a31" stroke="#222a31"></path><path d="M149 0L151 82L199 48Z" fill="#091620" stroke="#091620"></path><path d="M170 81L151 82L180 118Z" fill="#091620" stroke="#091620"></path><path d="M169 459L193 540L240 474Z" fill="#1c252d" stroke="#1c252d"></path><path d="M275 540L125 592L376 556Z" fill="#1c252d" stroke="#1c252d"></path><path d="M960 315L925 305L922 324Z" fill="#101b24" stroke="#101b24"></path><path d="M925 305L960 266L918 288Z" fill="#101b24" stroke="#101b24"></path><path d="M151 82L125 122L144 126Z" fill="#00101c" stroke="#00101c"></path><path d="M144 126L125 122L144 160Z" fill="#222a31" stroke="#222a31"></path><path d="M87 318L101 332L86 312Z" fill="#1c252d" stroke="#1c252d"></path><path d="M125 250L101 332L186 282Z" fill="#1c252d" stroke="#1c252d"></path><path d="M169 459L152 496L193 540Z" fill="#414548" stroke="#414548"></path><path d="M960 433L945 393L884 408Z" fill="#1c252d" stroke="#1c252d"></path><path d="M960 327L960 315L922 324Z" fill="#2e353a" stroke="#2e353a"></path><path d="M960 327L922 324L920 368Z" fill="#343a3f" stroke="#343a3f"></path><path d="M151 82L111 93L125 122Z" fill="#091620" stroke="#091620"></path><path d="M255 -26L193 0L245 0Z" fill="#282f35" stroke="#282f35"></path><path d="M945 393L960 327L920 368Z" fill="#1c252d" stroke="#1c252d"></path><path d="M960 53L898 44L921 152Z" fill="#414548" stroke="#414548"></path><path d="M921 152L898 44L863 50Z" fill="#101b24" stroke="#101b24"></path><path d="M849 19L875 0L821 0Z" fill="#282f35" stroke="#282f35"></path><path d="M960 266L960 206L918 288Z" fill="#101b24" stroke="#101b24"></path><path d="M676 560L859 560L798 540Z" fill="#222a31" stroke="#222a31"></path><path d="M834 540L891 540L810 515Z" fill="#00101c" stroke="#00101c"></path><path d="M39 208L93 243L144 160Z" fill="#00101c" stroke="#00101c"></path><path d="M64 437L169 459L167 405Z" fill="#343a3f" stroke="#343a3f"></path><path d="M960 206L960 185L921 152Z" fill="#091620" stroke="#091620"></path><path d="M898 44L875 0L863 50Z" fill="#162028" stroke="#162028"></path><path d="M821 0L892 -40L683 -34Z" fill="#343a3f" stroke="#343a3f"></path><path d="M960 153L955 148L921 152Z" fill="#282f35" stroke="#282f35"></path><path d="M960 0L892 -40L875 0Z" fill="#2e353a" stroke="#2e353a"></path><path d="M86 312L101 332L125 250Z" fill="#00101c" stroke="#00101c"></path><path d="M101 332L94 384L180 357Z" fill="#2e353a" stroke="#2e353a"></path><path d="M93 243L86 312L125 250Z" fill="#00101c" stroke="#00101c"></path><path d="M152 496L170 539L193 540Z" fill="#343a3f" stroke="#343a3f"></path><path d="M193 540L125 592L275 540Z" fill="#282f35" stroke="#282f35"></path><path d="M960 185L960 153L921 152Z" fill="#00101c" stroke="#00101c"></path><path d="M955 148L960 53L921 152Z" fill="#2e353a" stroke="#2e353a"></path><path d="M64 437L94 384L9 361Z" fill="#282f35" stroke="#282f35"></path><path d="M87 318L94 384L101 332Z" fill="#343a3f" stroke="#343a3f"></path><path d="M152 496L132 540L170 539Z" fill="#00101c" stroke="#00101c"></path><path d="M859 560L891 540L834 540Z" fill="#162028" stroke="#162028"></path><path d="M112 66L111 93L151 82Z" fill="#222a31" stroke="#222a31"></path><path d="M125 122L86 117L144 160Z" fill="#3b3f43" stroke="#3b3f43"></path><path d="M891 540L960 433L884 408Z" fill="#414548" stroke="#414548"></path><path d="M945 393L990 318L960 327Z" fill="#101b24" stroke="#101b24"></path><path d="M960 315L990 318L960 266Z" fill="#3b3f43" stroke="#3b3f43"></path><path d="M960 266L990 318L960 206Z" fill="#343a3f" stroke="#343a3f"></path><path d="M960 206L1009 57L960 185Z" fill="#282f35" stroke="#282f35"></path><path d="M960 185L1009 57L960 153Z" fill="#414548" stroke="#414548"></path><path d="M960 327L990 318L960 315Z" fill="#2e353a" stroke="#2e353a"></path><path d="M960 433L990 318L945 393Z" fill="#3b3f43" stroke="#3b3f43"></path><path d="M149 0L112 66L151 82Z" fill="#282f35" stroke="#282f35"></path><path d="M111 93L86 117L125 122Z" fill="#00101c" stroke="#00101c"></path><path d="M255 -26L149 0L193 0Z" fill="#162028" stroke="#162028"></path><path d="M193 0L149 0L199 48Z" fill="#1c252d" stroke="#1c252d"></path><path d="M70 119L86 117L58 73Z" fill="#414548" stroke="#414548"></path><path d="M93 243L57 238L86 312Z" fill="#343a3f" stroke="#343a3f"></path><path d="M39 208L57 238L93 243Z" fill="#1c252d" stroke="#1c252d"></path><path d="M9 361L94 384L87 318Z" fill="#343a3f" stroke="#343a3f"></path><path d="M58 73L86 117L111 93Z" fill="#2e353a" stroke="#2e353a"></path><path d="M149 0L140 0L112 66Z" fill="#162028" stroke="#162028"></path><path d="M54 -39L140 0L149 0Z" fill="#343a3f" stroke="#343a3f"></path><path d="M64 437L167 405L94 384Z" fill="#3b3f43" stroke="#3b3f43"></path><path d="M96 540L132 540L152 496Z" fill="#1c252d" stroke="#1c252d"></path><path d="M170 539L125 592L193 540Z" fill="#162028" stroke="#162028"></path><path d="M960 0L875 0L898 44Z" fill="#2e353a" stroke="#2e353a"></path><path d="M875 0L892 -40L821 0Z" fill="#222a31" stroke="#222a31"></path><path d="M683 -34L54 -39L468 -31Z" fill="#282f35" stroke="#282f35"></path><path d="M1009 57L955 148L960 153Z" fill="#1c252d" stroke="#1c252d"></path><path d="M1009 57L960 53L955 148Z" fill="#1c252d" stroke="#1c252d"></path><path d="M58 73L111 93L112 66Z" fill="#091620" stroke="#091620"></path><path d="M86 117L39 208L144 160Z" fill="#162028" stroke="#162028"></path><path d="M960 53L960 34L898 44Z" fill="#343a3f" stroke="#343a3f"></path><path d="M1009 57L960 34L960 53Z" fill="#3b3f43" stroke="#3b3f43"></path><path d="M9 361L87 318L0 342Z" fill="#091620" stroke="#091620"></path><path d="M70 119L39 208L86 117Z" fill="#3b3f43" stroke="#3b3f43"></path><path d="M57 238L28 249L86 312Z" fill="#282f35" stroke="#282f35"></path><path d="M950 546L960 518L891 540Z" fill="#2e353a" stroke="#2e353a"></path><path d="M891 540L960 518L960 433Z" fill="#414548" stroke="#414548"></path><path d="M960 433L999 488L990 318Z" fill="#414548" stroke="#414548"></path><path d="M140 0L111 0L112 66Z" fill="#282f35" stroke="#282f35"></path><path d="M70 119L33 144L39 208Z" fill="#282f35" stroke="#282f35"></path><path d="M54 -39L111 0L140 0Z" fill="#282f35" stroke="#282f35"></path><path d="M859 560L950 546L891 540Z" fill="#1c252d" stroke="#1c252d"></path><path d="M39 208L28 249L57 238Z" fill="#343a3f" stroke="#343a3f"></path><path d="M950 546L960 540L960 518Z" fill="#282f35" stroke="#282f35"></path><path d="M960 518L999 488L960 433Z" fill="#222a31" stroke="#222a31"></path><path d="M68 513L96 540L152 496Z" fill="#3b3f43" stroke="#3b3f43"></path><path d="M132 540L125 592L170 539Z" fill="#343a3f" stroke="#343a3f"></path><path d="M859 560L960 547L950 546Z" fill="#3b3f43" stroke="#3b3f43"></path><path d="M950 546L960 547L960 540Z" fill="#101b24" stroke="#101b24"></path><path d="M960 540L999 488L960 518Z" fill="#162028" stroke="#162028"></path><path d="M1009 57L960 0L960 34Z" fill="#3b3f43" stroke="#3b3f43"></path><path d="M960 34L960 0L898 44Z" fill="#1c252d" stroke="#1c252d"></path><path d="M111 0L58 73L112 66Z" fill="#162028" stroke="#162028"></path><path d="M0 269L2 282L28 249Z" fill="#00101c" stroke="#00101c"></path><path d="M0 105L33 144L70 119Z" fill="#162028" stroke="#162028"></path><path d="M96 540L125 592L132 540Z" fill="#101b24" stroke="#101b24"></path><path d="M376 556L125 592L676 560Z" fill="#3b3f43" stroke="#3b3f43"></path><path d="M676 560L125 592L859 560Z" fill="#222a31" stroke="#222a31"></path><path d="M960 547L999 488L960 540Z" fill="#282f35" stroke="#282f35"></path><path d="M64 437L68 513L152 496Z" fill="#1c252d" stroke="#1c252d"></path><path d="M96 540L73 540L125 592Z" fill="#282f35" stroke="#282f35"></path><path d="M0 501L68 513L64 437Z" fill="#00101c" stroke="#00101c"></path><path d="M999 488L1009 57L990 318Z" fill="#414548" stroke="#414548"></path><path d="M990 318L1009 57L960 206Z" fill="#1c252d" stroke="#1c252d"></path><path d="M0 269L28 249L0 228Z" fill="#2e353a" stroke="#2e353a"></path><path d="M28 249L2 282L86 312Z" fill="#343a3f" stroke="#343a3f"></path><path d="M0 315L87 318L86 312Z" fill="#282f35" stroke="#282f35"></path><path d="M0 540L73 540L68 513Z" fill="#282f35" stroke="#282f35"></path><path d="M68 513L73 540L96 540Z" fill="#101b24" stroke="#101b24"></path><path d="M0 228L28 249L39 208Z" fill="#00101c" stroke="#00101c"></path><path d="M2 282L0 299L86 312Z" fill="#1c252d" stroke="#1c252d"></path><path d="M0 269L0 299L2 282Z" fill="#091620" stroke="#091620"></path><path d="M0 299L0 315L86 312Z" fill="#1c252d" stroke="#1c252d"></path><path d="M33 144L0 228L39 208Z" fill="#091620" stroke="#091620"></path><path d="M-26 233L0 228L-37 144Z" fill="#222a31" stroke="#222a31"></path><path d="M0 315L0 342L87 318Z" fill="#3b3f43" stroke="#3b3f43"></path><path d="M9 361L0 426L64 437Z" fill="#2e353a" stroke="#2e353a"></path><path d="M-15 432L0 426L-46 426Z" fill="#414548" stroke="#414548"></path><path d="M0 89L0 105L58 73Z" fill="#222a31" stroke="#222a31"></path><path d="M58 73L0 105L70 119Z" fill="#222a31" stroke="#222a31"></path><path d="M-37 144L0 228L33 144Z" fill="#162028" stroke="#162028"></path><path d="M0 228L-26 233L0 269Z" fill="#414548" stroke="#414548"></path><path d="M0 269L-26 233L0 299Z" fill="#101b24" stroke="#101b24"></path><path d="M0 299L-26 233L0 315Z" fill="#3b3f43" stroke="#3b3f43"></path><path d="M0 315L-46 426L0 342Z" fill="#101b24" stroke="#101b24"></path><path d="M-46 426L0 426L9 361Z" fill="#091620" stroke="#091620"></path><path d="M0 51L0 89L58 73Z" fill="#091620" stroke="#091620"></path><path d="M0 105L-37 144L33 144Z" fill="#162028" stroke="#162028"></path><path d="M-46 426L9 361L0 342Z" fill="#343a3f" stroke="#343a3f"></path><path d="M0 426L0 501L64 437Z" fill="#2e353a" stroke="#2e353a"></path><path d="M255 -26L54 -39L149 0Z" fill="#222a31" stroke="#222a31"></path><path d="M111 0L26 -16L58 73Z" fill="#3b3f43" stroke="#3b3f43"></path><path d="M468 -31L54 -39L255 -26Z" fill="#101b24" stroke="#101b24"></path><path d="M892 -40L54 -39L683 -34Z" fill="#1c252d" stroke="#1c252d"></path><path d="M26 -16L0 51L58 73Z" fill="#222a31" stroke="#222a31"></path><path d="M0 89L-37 144L0 105Z" fill="#282f35" stroke="#282f35"></path><path d="M-15 432L0 501L0 426Z" fill="#414548" stroke="#414548"></path><path d="M73 540L0 540L125 592Z" fill="#343a3f" stroke="#343a3f"></path><path d="M54 -39L26 -16L111 0Z" fill="#00101c" stroke="#00101c"></path><path d="M0 51L-37 144L0 89Z" fill="#222a31" stroke="#222a31"></path><path d="M-26 233L-46 426L0 315Z" fill="#00101c" stroke="#00101c"></path><path d="M0 0L-37 144L0 51Z" fill="#091620" stroke="#091620"></path><path d="M-46 426L0 519L0 501Z" fill="#222a31" stroke="#222a31"></path><path d="M0 501L0 519L68 513Z" fill="#343a3f" stroke="#343a3f"></path><path d="M-46 426L0 540L0 519Z" fill="#101b24" stroke="#101b24"></path><path d="M0 519L0 540L68 513Z" fill="#222a31" stroke="#222a31"></path><path d="M-37 144L-46 426L-26 233Z" fill="#3b3f43" stroke="#3b3f43"></path><path d="M-15 432L-46 426L0 501Z" fill="#222a31" stroke="#222a31"></path><path d="M54 -39L0 0L26 -16Z" fill="#1c252d" stroke="#1c252d"></path><path d="M26 -16L0 0L0 51Z" fill="#282f35" stroke="#282f35"></path></g></svg>